<mxfile host="Electron" agent="Mozilla/5.0 (Windows NT 10.0; Win64; x64) AppleWebKit/537.36 (KHTML, like Gecko) draw.io/26.0.4 Chrome/128.0.6613.186 Electron/32.2.5 Safari/537.36" version="26.0.4">
  <diagram name="Страница — 1" id="wkYpkbcx60pAuh-b2wdD">
    <mxGraphModel dx="1050" dy="717" grid="1" gridSize="10" guides="1" tooltips="1" connect="1" arrows="1" fold="1" page="1" pageScale="1" pageWidth="827" pageHeight="1169" math="0" shadow="0">
      <root>
        <mxCell id="0" />
        <mxCell id="1" parent="0" />
        <mxCell id="b7Scjd0Z2R3FFszMgdHQ-4" style="edgeStyle=orthogonalEdgeStyle;rounded=0;orthogonalLoop=1;jettySize=auto;html=1;entryX=0.5;entryY=0;entryDx=0;entryDy=0;" parent="1" source="b7Scjd0Z2R3FFszMgdHQ-1" target="b7Scjd0Z2R3FFszMgdHQ-3" edge="1">
          <mxGeometry relative="1" as="geometry" />
        </mxCell>
        <mxCell id="b7Scjd0Z2R3FFszMgdHQ-1" value="Начало" style="ellipse;whiteSpace=wrap;html=1;" parent="1" vertex="1">
          <mxGeometry x="120" y="10" width="70" height="40" as="geometry" />
        </mxCell>
        <mxCell id="b7Scjd0Z2R3FFszMgdHQ-2" value="&lt;div&gt;#include &amp;lt;iostream&amp;gt;&lt;/div&gt;&lt;div&gt;#include &amp;lt;clocale&amp;gt;&lt;/div&gt;&lt;div&gt;#include &amp;lt;stdlib.h&amp;gt;&lt;/div&gt;&lt;div&gt;#include &amp;lt;ctime&amp;gt;&lt;/div&gt;&lt;div&gt;using namespace std;&lt;/div&gt;" style="text;html=1;align=center;verticalAlign=middle;whiteSpace=wrap;rounded=0;" parent="1" vertex="1">
          <mxGeometry x="220" y="20" width="130" height="80" as="geometry" />
        </mxCell>
        <mxCell id="b7Scjd0Z2R3FFszMgdHQ-13" style="edgeStyle=orthogonalEdgeStyle;rounded=0;orthogonalLoop=1;jettySize=auto;html=1;" parent="1" source="b7Scjd0Z2R3FFszMgdHQ-3" target="b7Scjd0Z2R3FFszMgdHQ-12" edge="1">
          <mxGeometry relative="1" as="geometry" />
        </mxCell>
        <mxCell id="b7Scjd0Z2R3FFszMgdHQ-3" value="int main()" style="shape=process;whiteSpace=wrap;html=1;backgroundOutline=1;" parent="1" vertex="1">
          <mxGeometry x="115" y="80" width="80" height="20" as="geometry" />
        </mxCell>
        <mxCell id="b7Scjd0Z2R3FFszMgdHQ-5" value="" style="endArrow=none;dashed=1;html=1;rounded=0;entryX=0;entryY=0.5;entryDx=0;entryDy=0;" parent="1" target="b7Scjd0Z2R3FFszMgdHQ-2" edge="1">
          <mxGeometry width="50" height="50" relative="1" as="geometry">
            <mxPoint x="160" y="60" as="sourcePoint" />
            <mxPoint x="290" y="140" as="targetPoint" />
          </mxGeometry>
        </mxCell>
        <mxCell id="b7Scjd0Z2R3FFszMgdHQ-6" value="" style="endArrow=none;html=1;rounded=0;entryX=0;entryY=0;entryDx=0;entryDy=0;exitX=0;exitY=1;exitDx=0;exitDy=0;" parent="1" source="b7Scjd0Z2R3FFszMgdHQ-2" target="b7Scjd0Z2R3FFszMgdHQ-2" edge="1">
          <mxGeometry width="50" height="50" relative="1" as="geometry">
            <mxPoint x="260" y="190" as="sourcePoint" />
            <mxPoint x="310" y="140" as="targetPoint" />
          </mxGeometry>
        </mxCell>
        <mxCell id="b7Scjd0Z2R3FFszMgdHQ-7" value="" style="endArrow=none;html=1;rounded=0;exitX=0;exitY=0;exitDx=0;exitDy=0;entryX=1;entryY=0;entryDx=0;entryDy=0;" parent="1" source="b7Scjd0Z2R3FFszMgdHQ-2" target="b7Scjd0Z2R3FFszMgdHQ-2" edge="1">
          <mxGeometry width="50" height="50" relative="1" as="geometry">
            <mxPoint x="250" y="200" as="sourcePoint" />
            <mxPoint x="300" y="150" as="targetPoint" />
          </mxGeometry>
        </mxCell>
        <mxCell id="b7Scjd0Z2R3FFszMgdHQ-8" value="" style="endArrow=none;html=1;rounded=0;exitX=0;exitY=1;exitDx=0;exitDy=0;entryX=1;entryY=1;entryDx=0;entryDy=0;" parent="1" source="b7Scjd0Z2R3FFszMgdHQ-2" target="b7Scjd0Z2R3FFszMgdHQ-2" edge="1">
          <mxGeometry width="50" height="50" relative="1" as="geometry">
            <mxPoint x="220" y="180" as="sourcePoint" />
            <mxPoint x="270" y="130" as="targetPoint" />
          </mxGeometry>
        </mxCell>
        <mxCell id="b7Scjd0Z2R3FFszMgdHQ-25" style="edgeStyle=orthogonalEdgeStyle;rounded=0;orthogonalLoop=1;jettySize=auto;html=1;entryX=0.5;entryY=0;entryDx=0;entryDy=0;" parent="1" source="b7Scjd0Z2R3FFszMgdHQ-9" target="b7Scjd0Z2R3FFszMgdHQ-19" edge="1">
          <mxGeometry relative="1" as="geometry" />
        </mxCell>
        <mxCell id="b7Scjd0Z2R3FFszMgdHQ-9" value="int mas[n];" style="rounded=0;whiteSpace=wrap;html=1;" parent="1" vertex="1">
          <mxGeometry x="120" y="240" width="70" height="20" as="geometry" />
        </mxCell>
        <mxCell id="b7Scjd0Z2R3FFszMgdHQ-16" style="edgeStyle=orthogonalEdgeStyle;rounded=0;orthogonalLoop=1;jettySize=auto;html=1;entryX=0.5;entryY=0;entryDx=0;entryDy=0;" parent="1" source="b7Scjd0Z2R3FFszMgdHQ-10" target="b7Scjd0Z2R3FFszMgdHQ-9" edge="1">
          <mxGeometry relative="1" as="geometry" />
        </mxCell>
        <mxCell id="b7Scjd0Z2R3FFszMgdHQ-10" value="const int n = 10;" style="rounded=0;whiteSpace=wrap;html=1;" parent="1" vertex="1">
          <mxGeometry x="110" y="200" width="90" height="20" as="geometry" />
        </mxCell>
        <mxCell id="b7Scjd0Z2R3FFszMgdHQ-15" style="edgeStyle=orthogonalEdgeStyle;rounded=0;orthogonalLoop=1;jettySize=auto;html=1;" parent="1" source="b7Scjd0Z2R3FFszMgdHQ-11" target="b7Scjd0Z2R3FFszMgdHQ-10" edge="1">
          <mxGeometry relative="1" as="geometry" />
        </mxCell>
        <mxCell id="b7Scjd0Z2R3FFszMgdHQ-11" value="srand(time(0));" style="rounded=0;whiteSpace=wrap;html=1;" parent="1" vertex="1">
          <mxGeometry x="110" y="160" width="90" height="20" as="geometry" />
        </mxCell>
        <mxCell id="b7Scjd0Z2R3FFszMgdHQ-14" style="edgeStyle=orthogonalEdgeStyle;rounded=0;orthogonalLoop=1;jettySize=auto;html=1;" parent="1" source="b7Scjd0Z2R3FFszMgdHQ-12" target="b7Scjd0Z2R3FFszMgdHQ-11" edge="1">
          <mxGeometry relative="1" as="geometry" />
        </mxCell>
        <mxCell id="b7Scjd0Z2R3FFszMgdHQ-12" value="setlocale(0,&quot;rus&quot;);" style="rounded=0;whiteSpace=wrap;html=1;" parent="1" vertex="1">
          <mxGeometry x="105" y="120" width="100" height="20" as="geometry" />
        </mxCell>
        <mxCell id="b7Scjd0Z2R3FFszMgdHQ-17" value="{" style="text;html=1;align=center;verticalAlign=middle;whiteSpace=wrap;rounded=0;" parent="1" vertex="1">
          <mxGeometry x="120" y="100" width="30" height="20" as="geometry" />
        </mxCell>
        <mxCell id="b7Scjd0Z2R3FFszMgdHQ-18" value="}" style="text;html=1;align=center;verticalAlign=middle;whiteSpace=wrap;rounded=0;" parent="1" vertex="1">
          <mxGeometry x="290" y="140" width="20" height="30" as="geometry" />
        </mxCell>
        <mxCell id="b7Scjd0Z2R3FFszMgdHQ-26" style="edgeStyle=orthogonalEdgeStyle;rounded=0;orthogonalLoop=1;jettySize=auto;html=1;entryX=0.5;entryY=0;entryDx=0;entryDy=0;" parent="1" source="b7Scjd0Z2R3FFszMgdHQ-19" target="b7Scjd0Z2R3FFszMgdHQ-20" edge="1">
          <mxGeometry relative="1" as="geometry" />
        </mxCell>
        <mxCell id="b7Scjd0Z2R3FFszMgdHQ-37" style="edgeStyle=orthogonalEdgeStyle;rounded=0;orthogonalLoop=1;jettySize=auto;html=1;entryX=0.5;entryY=0;entryDx=0;entryDy=0;" parent="1" source="b7Scjd0Z2R3FFszMgdHQ-19" target="b7Scjd0Z2R3FFszMgdHQ-33" edge="1">
          <mxGeometry relative="1" as="geometry">
            <Array as="points">
              <mxPoint x="289" y="290" />
            </Array>
          </mxGeometry>
        </mxCell>
        <mxCell id="b7Scjd0Z2R3FFszMgdHQ-19" value="for (int i = 0; i &amp;lt; n; i++)" style="shape=hexagon;perimeter=hexagonPerimeter2;whiteSpace=wrap;html=1;fixedSize=1;" parent="1" vertex="1">
          <mxGeometry x="75" y="280" width="160" height="20" as="geometry" />
        </mxCell>
        <mxCell id="b7Scjd0Z2R3FFszMgdHQ-27" style="edgeStyle=orthogonalEdgeStyle;rounded=0;orthogonalLoop=1;jettySize=auto;html=1;entryX=0;entryY=0.5;entryDx=0;entryDy=0;" parent="1" source="b7Scjd0Z2R3FFszMgdHQ-20" target="b7Scjd0Z2R3FFszMgdHQ-19" edge="1">
          <mxGeometry relative="1" as="geometry">
            <mxPoint x="60" y="290" as="targetPoint" />
            <Array as="points">
              <mxPoint x="155" y="350" />
              <mxPoint x="60" y="350" />
              <mxPoint x="60" y="290" />
            </Array>
          </mxGeometry>
        </mxCell>
        <mxCell id="b7Scjd0Z2R3FFszMgdHQ-20" value="mas[i] = rand() % 100 - 50;" style="rounded=0;whiteSpace=wrap;html=1;" parent="1" vertex="1">
          <mxGeometry x="80" y="320" width="150" height="20" as="geometry" />
        </mxCell>
        <mxCell id="b7Scjd0Z2R3FFszMgdHQ-28" value="1" style="text;html=1;align=center;verticalAlign=middle;whiteSpace=wrap;rounded=0;" parent="1" vertex="1">
          <mxGeometry x="130" y="300" width="20" height="20" as="geometry" />
        </mxCell>
        <mxCell id="b7Scjd0Z2R3FFszMgdHQ-29" value="{" style="text;html=1;align=center;verticalAlign=middle;whiteSpace=wrap;rounded=0;" parent="1" vertex="1">
          <mxGeometry x="120" y="300" width="20" height="20" as="geometry" />
        </mxCell>
        <mxCell id="b7Scjd0Z2R3FFszMgdHQ-43" style="edgeStyle=orthogonalEdgeStyle;rounded=0;orthogonalLoop=1;jettySize=auto;html=1;entryX=0.5;entryY=0;entryDx=0;entryDy=0;" parent="1" source="b7Scjd0Z2R3FFszMgdHQ-33" target="b7Scjd0Z2R3FFszMgdHQ-39" edge="1">
          <mxGeometry relative="1" as="geometry" />
        </mxCell>
        <mxCell id="b7Scjd0Z2R3FFszMgdHQ-33" value="cout &amp;lt;&amp;lt; &quot;Начальный массив:&quot; &amp;lt;&amp;lt; endl;" style="shape=parallelogram;perimeter=parallelogramPerimeter;whiteSpace=wrap;html=1;fixedSize=1;" parent="1" vertex="1">
          <mxGeometry x="164" y="370" width="250" height="20" as="geometry" />
        </mxCell>
        <mxCell id="b7Scjd0Z2R3FFszMgdHQ-34" value="}" style="text;html=1;align=center;verticalAlign=middle;whiteSpace=wrap;rounded=0;" parent="1" vertex="1">
          <mxGeometry x="160" y="340" width="20" height="20" as="geometry" />
        </mxCell>
        <mxCell id="b7Scjd0Z2R3FFszMgdHQ-36" value="0" style="text;html=1;align=center;verticalAlign=middle;whiteSpace=wrap;rounded=0;" parent="1" vertex="1">
          <mxGeometry x="235" y="270" width="30" height="20" as="geometry" />
        </mxCell>
        <mxCell id="b7Scjd0Z2R3FFszMgdHQ-44" style="edgeStyle=orthogonalEdgeStyle;rounded=0;orthogonalLoop=1;jettySize=auto;html=1;" parent="1" source="b7Scjd0Z2R3FFszMgdHQ-39" target="b7Scjd0Z2R3FFszMgdHQ-41" edge="1">
          <mxGeometry relative="1" as="geometry" />
        </mxCell>
        <mxCell id="b7Scjd0Z2R3FFszMgdHQ-50" style="edgeStyle=orthogonalEdgeStyle;rounded=0;orthogonalLoop=1;jettySize=auto;html=1;entryX=0.5;entryY=0;entryDx=0;entryDy=0;" parent="1" source="b7Scjd0Z2R3FFszMgdHQ-39" target="b7Scjd0Z2R3FFszMgdHQ-42" edge="1">
          <mxGeometry relative="1" as="geometry">
            <Array as="points">
              <mxPoint x="395" y="420" />
            </Array>
          </mxGeometry>
        </mxCell>
        <mxCell id="b7Scjd0Z2R3FFszMgdHQ-39" value="for (int k = 0; k &amp;lt; n; k++)" style="shape=hexagon;perimeter=hexagonPerimeter2;whiteSpace=wrap;html=1;fixedSize=1;" parent="1" vertex="1">
          <mxGeometry x="209" y="410" width="160" height="20" as="geometry" />
        </mxCell>
        <mxCell id="b7Scjd0Z2R3FFszMgdHQ-45" style="edgeStyle=orthogonalEdgeStyle;rounded=0;orthogonalLoop=1;jettySize=auto;html=1;entryX=0;entryY=0.5;entryDx=0;entryDy=0;" parent="1" source="b7Scjd0Z2R3FFszMgdHQ-41" target="b7Scjd0Z2R3FFszMgdHQ-39" edge="1">
          <mxGeometry relative="1" as="geometry">
            <mxPoint x="180" y="420" as="targetPoint" />
            <Array as="points">
              <mxPoint x="289" y="480" />
              <mxPoint x="190" y="480" />
              <mxPoint x="190" y="420" />
            </Array>
          </mxGeometry>
        </mxCell>
        <mxCell id="b7Scjd0Z2R3FFszMgdHQ-41" value="cout &amp;lt;&amp;lt; mas[k] &amp;lt;&amp;lt; &#39; &#39;;" style="shape=parallelogram;perimeter=parallelogramPerimeter;whiteSpace=wrap;html=1;fixedSize=1;" parent="1" vertex="1">
          <mxGeometry x="209" y="450" width="160" height="20" as="geometry" />
        </mxCell>
        <mxCell id="b7Scjd0Z2R3FFszMgdHQ-52" style="edgeStyle=orthogonalEdgeStyle;rounded=0;orthogonalLoop=1;jettySize=auto;html=1;" parent="1" source="b7Scjd0Z2R3FFszMgdHQ-42" target="b7Scjd0Z2R3FFszMgdHQ-51" edge="1">
          <mxGeometry relative="1" as="geometry" />
        </mxCell>
        <mxCell id="b7Scjd0Z2R3FFszMgdHQ-42" value="cout &amp;lt;&amp;lt; &#39;\n&#39;;" style="shape=parallelogram;perimeter=parallelogramPerimeter;whiteSpace=wrap;html=1;fixedSize=1;" parent="1" vertex="1">
          <mxGeometry x="340" y="480" width="110" height="20" as="geometry" />
        </mxCell>
        <mxCell id="b7Scjd0Z2R3FFszMgdHQ-46" value="{" style="text;html=1;align=center;verticalAlign=middle;whiteSpace=wrap;rounded=0;" parent="1" vertex="1">
          <mxGeometry x="245" y="430" width="20" height="20" as="geometry" />
        </mxCell>
        <mxCell id="b7Scjd0Z2R3FFszMgdHQ-47" value="1" style="text;html=1;align=center;verticalAlign=middle;whiteSpace=wrap;rounded=0;" parent="1" vertex="1">
          <mxGeometry x="265" y="430" width="20" height="20" as="geometry" />
        </mxCell>
        <mxCell id="b7Scjd0Z2R3FFszMgdHQ-48" value="0" style="text;html=1;align=center;verticalAlign=middle;whiteSpace=wrap;rounded=0;" parent="1" vertex="1">
          <mxGeometry x="369" y="400" width="21" height="20" as="geometry" />
        </mxCell>
        <mxCell id="b7Scjd0Z2R3FFszMgdHQ-49" value="}" style="text;html=1;align=center;verticalAlign=middle;whiteSpace=wrap;rounded=0;" parent="1" vertex="1">
          <mxGeometry x="290" y="470" width="20" height="20" as="geometry" />
        </mxCell>
        <mxCell id="keoSr3TB7H2x9BOV38p--3" style="edgeStyle=orthogonalEdgeStyle;rounded=0;orthogonalLoop=1;jettySize=auto;html=1;entryX=0.5;entryY=0;entryDx=0;entryDy=0;" parent="1" source="b7Scjd0Z2R3FFszMgdHQ-51" target="keoSr3TB7H2x9BOV38p--1" edge="1">
          <mxGeometry relative="1" as="geometry" />
        </mxCell>
        <mxCell id="b7Scjd0Z2R3FFszMgdHQ-51" value="int tmp, min;" style="rounded=0;whiteSpace=wrap;html=1;" parent="1" vertex="1">
          <mxGeometry x="360" y="520" width="70" height="20" as="geometry" />
        </mxCell>
        <mxCell id="b7Scjd0Z2R3FFszMgdHQ-89" style="edgeStyle=orthogonalEdgeStyle;rounded=0;orthogonalLoop=1;jettySize=auto;html=1;entryX=0.5;entryY=0;entryDx=0;entryDy=0;" parent="1" source="b7Scjd0Z2R3FFszMgdHQ-77" target="b7Scjd0Z2R3FFszMgdHQ-81" edge="1">
          <mxGeometry relative="1" as="geometry" />
        </mxCell>
        <mxCell id="b7Scjd0Z2R3FFszMgdHQ-77" value="cout &amp;lt;&amp;lt; &quot;Конечный массив:&quot; &amp;lt;&amp;lt; endl;" style="shape=parallelogram;perimeter=parallelogramPerimeter;whiteSpace=wrap;html=1;fixedSize=1;" parent="1" vertex="1">
          <mxGeometry x="570" y="820" width="230" height="20" as="geometry" />
        </mxCell>
        <mxCell id="b7Scjd0Z2R3FFszMgdHQ-80" style="edgeStyle=orthogonalEdgeStyle;rounded=0;orthogonalLoop=1;jettySize=auto;html=1;" parent="1" source="b7Scjd0Z2R3FFszMgdHQ-81" edge="1">
          <mxGeometry relative="1" as="geometry">
            <mxPoint x="780" y="940" as="targetPoint" />
            <Array as="points">
              <mxPoint x="780" y="880" />
            </Array>
          </mxGeometry>
        </mxCell>
        <mxCell id="b7Scjd0Z2R3FFszMgdHQ-81" value="for (int k = 0; k &amp;lt; n; k++)" style="shape=hexagon;perimeter=hexagonPerimeter2;whiteSpace=wrap;html=1;fixedSize=1;" parent="1" vertex="1">
          <mxGeometry x="605" y="870" width="160" height="20" as="geometry" />
        </mxCell>
        <mxCell id="b7Scjd0Z2R3FFszMgdHQ-82" style="edgeStyle=orthogonalEdgeStyle;rounded=0;orthogonalLoop=1;jettySize=auto;html=1;entryX=0;entryY=0.5;entryDx=0;entryDy=0;" parent="1" source="b7Scjd0Z2R3FFszMgdHQ-83" target="b7Scjd0Z2R3FFszMgdHQ-81" edge="1">
          <mxGeometry relative="1" as="geometry">
            <mxPoint x="586" y="880" as="targetPoint" />
            <Array as="points">
              <mxPoint x="695" y="940" />
              <mxPoint x="590" y="940" />
              <mxPoint x="590" y="880" />
            </Array>
          </mxGeometry>
        </mxCell>
        <mxCell id="b7Scjd0Z2R3FFszMgdHQ-83" value="cout &amp;lt;&amp;lt; mas[k] &amp;lt;&amp;lt; &#39; &#39;;" style="shape=parallelogram;perimeter=parallelogramPerimeter;whiteSpace=wrap;html=1;fixedSize=1;" parent="1" vertex="1">
          <mxGeometry x="610" y="910" width="140" height="20" as="geometry" />
        </mxCell>
        <mxCell id="b7Scjd0Z2R3FFszMgdHQ-84" value="{" style="text;html=1;align=center;verticalAlign=middle;whiteSpace=wrap;rounded=0;" parent="1" vertex="1">
          <mxGeometry x="651" y="890" width="20" height="20" as="geometry" />
        </mxCell>
        <mxCell id="b7Scjd0Z2R3FFszMgdHQ-85" value="1" style="text;html=1;align=center;verticalAlign=middle;whiteSpace=wrap;rounded=0;" parent="1" vertex="1">
          <mxGeometry x="660" y="890" width="20" height="20" as="geometry" />
        </mxCell>
        <mxCell id="b7Scjd0Z2R3FFszMgdHQ-86" value="0" style="text;html=1;align=center;verticalAlign=middle;whiteSpace=wrap;rounded=0;" parent="1" vertex="1">
          <mxGeometry x="765" y="860" width="21" height="20" as="geometry" />
        </mxCell>
        <mxCell id="b7Scjd0Z2R3FFszMgdHQ-87" value="}" style="text;html=1;align=center;verticalAlign=middle;whiteSpace=wrap;rounded=0;" parent="1" vertex="1">
          <mxGeometry x="696" y="930" width="20" height="20" as="geometry" />
        </mxCell>
        <mxCell id="b7Scjd0Z2R3FFszMgdHQ-90" value="return 0;" style="ellipse;whiteSpace=wrap;html=1;" parent="1" vertex="1">
          <mxGeometry x="739.24" y="940" width="72.52" height="30" as="geometry" />
        </mxCell>
        <mxCell id="b7Scjd0Z2R3FFszMgdHQ-91" value="}" style="text;html=1;align=center;verticalAlign=middle;whiteSpace=wrap;rounded=0;" parent="1" vertex="1">
          <mxGeometry x="811.76" y="945" width="7.48" height="20" as="geometry" />
        </mxCell>
        <mxCell id="wiZaFX8G--EhWy8yWrvN-18" value="0" style="text;html=1;align=center;verticalAlign=middle;whiteSpace=wrap;rounded=0;" parent="1" vertex="1">
          <mxGeometry x="470" y="540" width="21" height="20" as="geometry" />
        </mxCell>
        <mxCell id="wiZaFX8G--EhWy8yWrvN-22" value="0" style="text;html=1;align=center;verticalAlign=middle;whiteSpace=wrap;rounded=0;" parent="1" vertex="1">
          <mxGeometry x="470" y="540" width="21" height="20" as="geometry" />
        </mxCell>
        <mxCell id="wiZaFX8G--EhWy8yWrvN-24" style="edgeStyle=orthogonalEdgeStyle;rounded=0;orthogonalLoop=1;jettySize=auto;html=1;entryX=0.536;entryY=0.103;entryDx=0;entryDy=0;entryPerimeter=0;" parent="1" source="b7Scjd0Z2R3FFszMgdHQ-81" target="b7Scjd0Z2R3FFszMgdHQ-83" edge="1">
          <mxGeometry relative="1" as="geometry" />
        </mxCell>
        <mxCell id="keoSr3TB7H2x9BOV38p--6" style="edgeStyle=orthogonalEdgeStyle;rounded=0;orthogonalLoop=1;jettySize=auto;html=1;entryX=0.5;entryY=0;entryDx=0;entryDy=0;" parent="1" source="keoSr3TB7H2x9BOV38p--1" target="keoSr3TB7H2x9BOV38p--4" edge="1">
          <mxGeometry relative="1" as="geometry" />
        </mxCell>
        <mxCell id="zygPN4Y1rgqUHmsAmUug-11" style="edgeStyle=orthogonalEdgeStyle;rounded=0;orthogonalLoop=1;jettySize=auto;html=1;entryX=0.5;entryY=0;entryDx=0;entryDy=0;" edge="1" parent="1" source="keoSr3TB7H2x9BOV38p--1" target="b7Scjd0Z2R3FFszMgdHQ-77">
          <mxGeometry relative="1" as="geometry" />
        </mxCell>
        <mxCell id="keoSr3TB7H2x9BOV38p--1" value="for (int i = 0; i &amp;lt; n - 1; i++)" style="shape=hexagon;perimeter=hexagonPerimeter2;whiteSpace=wrap;html=1;fixedSize=1;" parent="1" vertex="1">
          <mxGeometry x="315" y="560" width="160" height="20" as="geometry" />
        </mxCell>
        <mxCell id="keoSr3TB7H2x9BOV38p--7" style="edgeStyle=orthogonalEdgeStyle;rounded=0;orthogonalLoop=1;jettySize=auto;html=1;entryX=0.5;entryY=0;entryDx=0;entryDy=0;" parent="1" source="keoSr3TB7H2x9BOV38p--4" target="keoSr3TB7H2x9BOV38p--5" edge="1">
          <mxGeometry relative="1" as="geometry" />
        </mxCell>
        <mxCell id="keoSr3TB7H2x9BOV38p--4" value="min = i;" style="rounded=0;whiteSpace=wrap;html=1;" parent="1" vertex="1">
          <mxGeometry x="370" y="600" width="50" height="20" as="geometry" />
        </mxCell>
        <mxCell id="keoSr3TB7H2x9BOV38p--9" style="edgeStyle=orthogonalEdgeStyle;rounded=0;orthogonalLoop=1;jettySize=auto;html=1;entryX=0.5;entryY=0;entryDx=0;entryDy=0;" parent="1" source="keoSr3TB7H2x9BOV38p--5" target="keoSr3TB7H2x9BOV38p--8" edge="1">
          <mxGeometry relative="1" as="geometry" />
        </mxCell>
        <mxCell id="zygPN4Y1rgqUHmsAmUug-5" style="edgeStyle=orthogonalEdgeStyle;rounded=0;orthogonalLoop=1;jettySize=auto;html=1;entryX=0.5;entryY=0;entryDx=0;entryDy=0;" edge="1" parent="1" source="keoSr3TB7H2x9BOV38p--5" target="zygPN4Y1rgqUHmsAmUug-3">
          <mxGeometry relative="1" as="geometry" />
        </mxCell>
        <mxCell id="keoSr3TB7H2x9BOV38p--5" value="for (int j = i + 1; j &amp;lt; n; j++)" style="shape=hexagon;perimeter=hexagonPerimeter2;whiteSpace=wrap;html=1;fixedSize=1;" parent="1" vertex="1">
          <mxGeometry x="315" y="640" width="160" height="20" as="geometry" />
        </mxCell>
        <mxCell id="keoSr3TB7H2x9BOV38p--11" style="edgeStyle=orthogonalEdgeStyle;rounded=0;orthogonalLoop=1;jettySize=auto;html=1;" parent="1" source="keoSr3TB7H2x9BOV38p--8" edge="1">
          <mxGeometry relative="1" as="geometry">
            <mxPoint x="300" y="720" as="targetPoint" />
          </mxGeometry>
        </mxCell>
        <mxCell id="keoSr3TB7H2x9BOV38p--18" style="edgeStyle=orthogonalEdgeStyle;rounded=0;orthogonalLoop=1;jettySize=auto;html=1;" parent="1" source="keoSr3TB7H2x9BOV38p--8" edge="1">
          <mxGeometry relative="1" as="geometry">
            <mxPoint x="390" y="760" as="targetPoint" />
            <Array as="points">
              <mxPoint x="490" y="705" />
              <mxPoint x="490" y="760" />
            </Array>
          </mxGeometry>
        </mxCell>
        <mxCell id="keoSr3TB7H2x9BOV38p--8" value="if (mas[j] &amp;lt; mas[min])" style="rhombus;whiteSpace=wrap;html=1;" parent="1" vertex="1">
          <mxGeometry x="320" y="680" width="150" height="50" as="geometry" />
        </mxCell>
        <mxCell id="keoSr3TB7H2x9BOV38p--17" style="edgeStyle=orthogonalEdgeStyle;rounded=0;orthogonalLoop=1;jettySize=auto;html=1;" parent="1" source="keoSr3TB7H2x9BOV38p--10" edge="1">
          <mxGeometry relative="1" as="geometry">
            <mxPoint x="390" y="760" as="targetPoint" />
            <Array as="points">
              <mxPoint x="300" y="760" />
            </Array>
          </mxGeometry>
        </mxCell>
        <mxCell id="keoSr3TB7H2x9BOV38p--10" value="min = j;" style="rounded=0;whiteSpace=wrap;html=1;" parent="1" vertex="1">
          <mxGeometry x="275" y="720" width="50" height="20" as="geometry" />
        </mxCell>
        <mxCell id="keoSr3TB7H2x9BOV38p--12" value="1" style="text;html=1;align=center;verticalAlign=middle;whiteSpace=wrap;rounded=0;" parent="1" vertex="1">
          <mxGeometry x="369" y="580" width="20" height="20" as="geometry" />
        </mxCell>
        <mxCell id="keoSr3TB7H2x9BOV38p--13" value="{" style="text;html=1;align=center;verticalAlign=middle;whiteSpace=wrap;rounded=0;" parent="1" vertex="1">
          <mxGeometry x="350" y="580" width="20" height="20" as="geometry" />
        </mxCell>
        <mxCell id="keoSr3TB7H2x9BOV38p--14" value="1" style="text;html=1;align=center;verticalAlign=middle;whiteSpace=wrap;rounded=0;" parent="1" vertex="1">
          <mxGeometry x="370" y="660" width="20" height="20" as="geometry" />
        </mxCell>
        <mxCell id="keoSr3TB7H2x9BOV38p--15" value="1" style="text;html=1;align=center;verticalAlign=middle;whiteSpace=wrap;rounded=0;" parent="1" vertex="1">
          <mxGeometry x="300" y="684" width="20" height="20" as="geometry" />
        </mxCell>
        <mxCell id="keoSr3TB7H2x9BOV38p--16" value="{" style="text;html=1;align=center;verticalAlign=middle;whiteSpace=wrap;rounded=0;" parent="1" vertex="1">
          <mxGeometry x="360" y="660" width="20" height="20" as="geometry" />
        </mxCell>
        <mxCell id="keoSr3TB7H2x9BOV38p--19" value="0" style="text;html=1;align=center;verticalAlign=middle;whiteSpace=wrap;rounded=0;" parent="1" vertex="1">
          <mxGeometry x="470" y="684" width="21" height="20" as="geometry" />
        </mxCell>
        <mxCell id="keoSr3TB7H2x9BOV38p--20" value="" style="endArrow=classic;html=1;rounded=0;entryX=0;entryY=0.5;entryDx=0;entryDy=0;" parent="1" target="keoSr3TB7H2x9BOV38p--5" edge="1">
          <mxGeometry width="50" height="50" relative="1" as="geometry">
            <mxPoint x="390" y="760" as="sourcePoint" />
            <mxPoint x="280" y="640" as="targetPoint" />
            <Array as="points">
              <mxPoint x="390" y="770" />
              <mxPoint x="260" y="770" />
              <mxPoint x="260" y="710" />
              <mxPoint x="260" y="650" />
            </Array>
          </mxGeometry>
        </mxCell>
        <mxCell id="keoSr3TB7H2x9BOV38p--21" value="}" style="text;html=1;align=center;verticalAlign=middle;whiteSpace=wrap;rounded=0;" parent="1" vertex="1">
          <mxGeometry x="394" y="765" width="20" height="20" as="geometry" />
        </mxCell>
        <mxCell id="keoSr3TB7H2x9BOV38p--23" value="0" style="text;html=1;align=center;verticalAlign=middle;whiteSpace=wrap;rounded=0;" parent="1" vertex="1">
          <mxGeometry x="475" y="630" width="21" height="20" as="geometry" />
        </mxCell>
        <mxCell id="zygPN4Y1rgqUHmsAmUug-9" style="edgeStyle=orthogonalEdgeStyle;rounded=0;orthogonalLoop=1;jettySize=auto;html=1;entryX=0;entryY=0.5;entryDx=0;entryDy=0;" edge="1" parent="1" source="zygPN4Y1rgqUHmsAmUug-1" target="keoSr3TB7H2x9BOV38p--1">
          <mxGeometry relative="1" as="geometry">
            <mxPoint x="240" y="560" as="targetPoint" />
            <Array as="points">
              <mxPoint x="570" y="800" />
              <mxPoint x="240" y="800" />
              <mxPoint x="240" y="570" />
            </Array>
          </mxGeometry>
        </mxCell>
        <mxCell id="zygPN4Y1rgqUHmsAmUug-1" value="mas[i] = tmp;" style="rounded=0;whiteSpace=wrap;html=1;" vertex="1" parent="1">
          <mxGeometry x="530" y="760" width="80" height="20" as="geometry" />
        </mxCell>
        <mxCell id="zygPN4Y1rgqUHmsAmUug-7" style="edgeStyle=orthogonalEdgeStyle;rounded=0;orthogonalLoop=1;jettySize=auto;html=1;entryX=0.5;entryY=0;entryDx=0;entryDy=0;" edge="1" parent="1" source="zygPN4Y1rgqUHmsAmUug-2" target="zygPN4Y1rgqUHmsAmUug-1">
          <mxGeometry relative="1" as="geometry" />
        </mxCell>
        <mxCell id="zygPN4Y1rgqUHmsAmUug-2" value="mas[min] = mas[i];" style="rounded=0;whiteSpace=wrap;html=1;" vertex="1" parent="1">
          <mxGeometry x="520" y="720" width="100" height="20" as="geometry" />
        </mxCell>
        <mxCell id="zygPN4Y1rgqUHmsAmUug-6" style="edgeStyle=orthogonalEdgeStyle;rounded=0;orthogonalLoop=1;jettySize=auto;html=1;" edge="1" parent="1" source="zygPN4Y1rgqUHmsAmUug-3" target="zygPN4Y1rgqUHmsAmUug-2">
          <mxGeometry relative="1" as="geometry" />
        </mxCell>
        <mxCell id="zygPN4Y1rgqUHmsAmUug-3" value="tmp = mas[min];" style="rounded=0;whiteSpace=wrap;html=1;" vertex="1" parent="1">
          <mxGeometry x="525" y="680" width="90" height="20" as="geometry" />
        </mxCell>
        <mxCell id="zygPN4Y1rgqUHmsAmUug-10" value="}" style="text;html=1;align=center;verticalAlign=middle;whiteSpace=wrap;rounded=0;" vertex="1" parent="1">
          <mxGeometry x="570" y="780" width="20" height="20" as="geometry" />
        </mxCell>
      </root>
    </mxGraphModel>
  </diagram>
</mxfile>
